<?xml version="1.0" encoding="UTF-8" standalone="no"?>
<svg
   width="1020"
   height="799"
   viewBox="0 0 1020 799"
   version="1.1"
   id="svg104"
   sodipodi:docname="openvolleyscout.svg"
   inkscape:version="1.4.2 (ebf0e940d0, 2025-05-08)"
   xmlns:inkscape="http://www.inkscape.org/namespaces/inkscape"
   xmlns:sodipodi="http://sodipodi.sourceforge.net/DTD/sodipodi-0.dtd"
   xmlns="http://www.w3.org/2000/svg"
   xmlns:svg="http://www.w3.org/2000/svg">
  <sodipodi:namedview
     id="namedview104"
     pagecolor="#ffffff"
     bordercolor="#000000"
     borderopacity="0.25"
     inkscape:showpageshadow="2"
     inkscape:pageopacity="0.0"
     inkscape:pagecheckerboard="0"
     inkscape:deskcolor="#d1d1d1"
     inkscape:zoom="1.0398629"
     inkscape:cx="510.1634"
     inkscape:cy="398.61023"
     inkscape:window-width="1470"
     inkscape:window-height="787"
     inkscape:window-x="0"
     inkscape:window-y="0"
     inkscape:window-maximized="1"
     inkscape:current-layer="svg104"
     showgrid="false" />
  <path
     fill="#002554"
     d="M803.81 246.987C804.568 248.021 804.42 250.096 804.431 251.537L804.42 447.68L804.443 502.024C804.463 513.381 805.091 530.459 803.094 541.055C800.425 554.556 793.86 566.979 784.212 576.79C759.938 601.106 735.857 597.379 704.975 597.378L626.572 597.367L335.75 597.445L335.359 596.86C335.005 586.709 343.034 568.329 347.721 559.218C396.101 465.151 551.81 403.39 643.732 358.466C662.877 349.09 681.699 339.07 700.167 328.423C740.43 305.213 772.699 281.862 803.81 246.987Z"
     id="path2" />
  <path
     fill="#F9F9F9"
     d="M653.752 369.642C658.655 369.152 667.901 370.927 672.977 371.74C672.372 375.193 671.933 379.262 671.464 382.78C666.934 382.124 656.49 379.548 652.891 382.574C650.986 387.524 649.222 401.698 648.361 407.407L641.778 450.933L631.73 514.74C630.576 522.023 626.973 538.559 627.571 545.096C627.718 546.705 628.047 548.617 629.418 549.667C631.897 551.565 726.708 564.989 737.748 565.975C740.041 566.18 742.203 566.162 744.479 565.804C748.208 563.465 749.847 545.103 750.643 539.916L757.348 495.761L766.311 438.129C768.047 427.056 769.771 416.059 771.336 404.894C772.665 395.403 769.68 396.325 761.254 394.95C758.932 394.572 756.415 394.232 754.071 393.866C754.562 390.239 755.08 386.615 755.626 382.996L765.12 384.248C770.188 384.913 773.681 385.254 777.876 388.638C779.843 390.223 782.645 394.223 782.746 396.83C782.872 399.834 782.77 402.844 782.439 405.833C781.137 417.165 778.581 430.292 776.86 441.745L764.319 524.276C762.948 532.888 761.628 541.508 760.361 550.136C759.612 555.235 758.91 562.58 757.357 567.291C755.061 573.557 747.199 578.82 740.566 578.047C727.649 576.542 714.788 574.523 701.951 572.695L653.385 565.655C637.656 563.314 612.837 564.315 616.09 541.505C618.819 522.365 622.2 503.297 625.177 484.191L635.228 419.57C637.113 407.479 638.959 389.228 642.749 377.859C644.128 373.725 649.58 371.016 653.752 369.642Z"
     id="path3" />
  <defs
     id="defs4">
    <linearGradient
       id="gradient_0"
       gradientUnits="userSpaceOnUse"
       x1="574.23474"
       y1="544.61169"
       x2="577.78699"
       y2="441.03714">
      <stop
         offset="0"
         stop-color="#066BD8"
         id="stop3" />
      <stop
         offset="1"
         stop-color="#3CA0F6"
         id="stop4" />
    </linearGradient>
  </defs>
  <path
     fill="url(#gradient_0)"
     d="M564.212 440.411L588.581 440.416C588.749 466.399 588.866 492.989 588.615 518.955C588.928 534.918 588.693 551.416 588.66 567.418C580.563 567.4 572.281 567.471 564.2 567.359C564.203 559.82 563.967 550.362 564.242 542.965C563.906 532.081 564.215 519.396 564.214 508.414L564.212 440.411Z"
     id="path4" />
  <path
     fill="#0169D8"
     d="M588.615 518.955C588.928 534.918 588.693 551.416 588.66 567.418C580.563 567.4 572.281 567.471 564.2 567.359C564.203 559.82 563.967 550.362 564.242 542.965C566.178 542.354 582.745 545.121 585.72 545.369C585.475 545.349 587.791 546.802 587.888 546.858C588.48 537.763 587.868 528.001 588.615 518.955Z"
     id="path5" />
  <path
     fill="#F9F9F9"
     d="M530.329 474.675C538.092 474.461 547.004 474.647 554.847 474.646L554.945 567.374L530.377 567.329L530.329 474.675Z"
     id="path6" />
  <path
     fill="#F9F9F9"
     d="M714.156 352.289C727.577 352.413 733.221 361.288 733.096 373.894C736.608 374.318 744.27 374.945 747.103 376.261C750.22 380.009 747.845 395.804 744.69 399.081C741.161 400.099 720.641 396.439 715.315 395.76C707.858 394.005 682.672 393.004 678.173 389.341C677.885 388.523 677.601 387.347 677.752 386.468C681.213 366.241 676.442 367.031 697.55 368.776C699.854 358.572 703.503 354.105 714.156 352.289Z"
     id="path7" />
  <path
     fill="#002554"
     d="M713.701 363.058C717.315 362.13 721.008 364.261 722.014 367.855C723.02 371.449 720.97 375.188 717.399 376.272C715.019 376.994 712.435 376.372 710.645 374.646C708.854 372.919 708.138 370.359 708.772 367.954C709.406 365.549 711.292 363.676 713.701 363.058Z"
     id="path8" />
  <path
     fill="#F9F9F9"
     d="M496.079 506.546C503.815 506.258 512.797 506.502 520.624 506.527C520.83 526.751 520.331 547.124 520.735 567.315C512.612 567.488 504.213 567.344 496.069 567.307L496.079 506.546Z"
     id="path9" />
  <path
     fill="#F9F9F9"
     d="M737.131 438.246C737.81 438.359 738.381 438.316 738.771 438.774C741.187 441.604 747.182 454.989 747.551 457.984C746.988 459.141 746.23 459.86 745.058 460.409C741.571 462.043 739.242 455.513 738.137 453.276C730.317 478.889 712.137 496.807 689.326 509.645C678.586 515.69 669.362 519.988 660.191 528.428L663.504 532.579C662.614 534.188 661.633 535.62 660.621 537.15L649.737 535.837C647.733 535.264 646.666 535.053 646.205 532.788C645.386 528.76 644.962 520.649 650.375 519.76C652.644 519.387 654.58 521.125 656.211 522.438C664.763 514.604 673.526 509.65 683.541 503.87C705.633 491.122 723.411 476.254 731.295 450.847C728.147 452.875 720.316 459.046 719.823 450.78C721.432 448.27 733.865 440.429 737.131 438.246Z"
     id="path10" />
  <path
     fill="#F9F9F9"
     d="M462.216 533.466C470.317 533.384 478.417 533.387 486.518 533.477C486.422 544.762 486.423 556.047 486.52 567.332C478.394 567.393 470.267 567.389 462.14 567.321L462.216 533.466Z"
     id="path11" />
  <path
     fill="#F9F9F9"
     d="M663.973 393.985C665.81 394.025 666.8 393.913 668.527 394.612C669.354 396.283 668.865 397.791 668.704 399.925C694.229 405.03 722.548 406.634 748.378 411.105C750.095 411.402 751.407 408.899 752.336 407.665C753.845 405.659 755.51 406.457 757.782 406.745C757.302 409.196 756.934 412.058 756.554 414.559L755.529 420.347C724.657 415.53 693.189 411.935 662.164 407.044C662.861 402.704 663.464 398.35 663.973 393.985Z"
     id="path12" />
  <path
     fill="#F9F9F9"
     d="M721.752 520.905C726.175 519.746 730.879 521.057 734.066 524.337C737.252 527.616 738.427 532.357 737.142 536.745C735.856 541.134 732.309 544.491 727.857 545.532C721.099 547.114 714.325 542.969 712.655 536.231C710.985 529.494 715.038 522.664 721.752 520.905Z"
     id="path13" />
  <path
     fill="#002554"
     d="M723.647 527.333C726.864 526.579 730.084 528.574 730.842 531.791C731.6 535.008 729.609 538.231 726.394 538.992C723.173 539.755 719.944 537.76 719.185 534.538C718.426 531.316 720.424 528.089 723.647 527.333Z"
     id="path14" />
  <path
     fill="#F9F9F9"
     d="M660.021 473.05C666.659 471.573 673.246 475.721 674.784 482.345C676.321 488.97 672.235 495.596 665.626 497.195C658.93 498.815 652.199 494.662 650.641 487.951C649.084 481.24 653.297 474.546 660.021 473.05Z"
     id="path15" />
  <path
     fill="#002554"
     d="M661.078 479.528C663.093 478.944 665.267 479.491 666.765 480.96C668.264 482.429 668.854 484.591 668.311 486.618C667.767 488.645 666.174 490.221 664.141 490.742C661.066 491.531 657.927 489.706 657.09 486.643C656.254 483.58 658.029 480.413 661.078 479.528Z"
     id="path16" />
  <path
     fill="#F9F9F9"
     d="M674.112 424.788C675.772 425.618 680.582 432.116 682.031 433.946C685.233 431.439 688.459 428.963 691.71 426.518C693.045 428.1 694.315 430.016 695.515 431.724C692.723 434.403 689.428 436.99 686.418 439.459C689.019 442.673 691.576 445.923 694.087 449.209C692.621 450.581 690.872 451.994 689.326 453.306C686.693 450.479 683.868 446.739 681.425 443.671C678.386 446.28 674.987 448.698 671.757 451.086C670.244 449.509 669.095 447.834 667.803 446.075C670.133 443.771 674.378 440.478 677.015 438.301C674.404 435.08 671.867 431.798 669.409 428.459L674.112 424.788Z"
     id="path17" />
  <defs
     id="defs18">
    <linearGradient
       id="gradient_1"
       gradientUnits="userSpaceOnUse"
       x1="572.64899"
       y1="330.80716"
       x2="441.49243"
       y2="58.299446">
      <stop
         offset="0"
         stop-color="#002659"
         id="stop17" />
      <stop
         offset="1"
         stop-color="#004497"
         id="stop18" />
    </linearGradient>
  </defs>
  <path
     fill="url(#gradient_1)"
     d="M469.106 43.0364C506.815 33.4469 537.289 36.0066 571.269 56.2817C579.929 61.4891 588.042 67.5572 595.483 74.3938C592.841 80.3369 590.258 86.2673 587.492 92.2226C573.881 121.526 555.227 147.595 533.187 171.092C532.681 171.631 532.578 172.569 532.59 173.261C534.268 175.602 536.116 180.341 537.118 183.152C545.028 201.443 554.25 216.183 566.753 231.59C564.454 233.016 563.687 233.558 560.859 233.816C573.057 251.393 588.865 266.165 607.227 277.144C608.521 276.096 607.783 276.435 609.596 276.284C614.283 279.101 618.955 281.943 623.611 284.811C635.95 290.364 645.458 293.73 659.181 294.841C652.519 298.396 643.686 302.086 636.658 305.122C621.251 311.746 605.731 318.106 590.105 324.198C585.634 325.926 580.751 329.063 576.41 327.018L576.897 329.008C575.044 331.428 522.394 349.343 514.719 352.136C511.732 353.281 508.183 354.328 505.102 355.318C459.026 341.731 424.737 317.029 400.456 275.008C397.619 270.086 395.035 265.022 392.714 259.836C372.028 217.217 372.807 161.692 392.646 118.981C402.021 98.0893 413.238 82.876 429.699 67.0107C436.455 60.2577 448.823 50.4503 457.516 46.2713C459.999 45.0774 466.204 43.631 469.106 43.0364Z"
     id="path18" />
  <defs
     id="defs20">
    <linearGradient
       id="gradient_2"
       gradientUnits="userSpaceOnUse"
       x1="473.1673"
       y1="330.59149"
       x2="541.54633"
       y2="188.24005">
      <stop
         offset="0"
         stop-color="#CFD3DA"
         id="stop19" />
      <stop
         offset="1"
         stop-color="white"
         id="stop20" />
    </linearGradient>
  </defs>
  <path
     fill="url(#gradient_2)"
     d="M453.201 158.156C466.501 157.376 471.756 157.898 485.068 159.663C484.878 171.362 485.825 183.051 487.897 194.566C495.797 239.717 519.07 283.793 555.049 312.475C563.964 319.582 568.039 321.08 576.11 326.802L576.41 327.018L576.897 329.008C575.044 331.428 522.394 349.343 514.719 352.136C449.696 313.043 424.511 227.494 453.201 158.156Z"
     id="path20" />
  <defs
     id="defs22">
    <linearGradient
       id="gradient_3"
       gradientUnits="userSpaceOnUse"
       x1="582.52594"
       y1="324.4635"
       x2="555.09918"
       y2="199.03827">
      <stop
         offset="0"
         stop-color="#012C65"
         id="stop21" />
      <stop
         offset="1"
         stop-color="#015EC7"
         id="stop22" />
    </linearGradient>
  </defs>
  <path
     fill="url(#gradient_3)"
     d="M493.106 161.64C499.486 163.378 505.775 165.432 511.952 167.794C516.61 169.577 522.58 172.34 527.338 174.154C528.044 174.423 530.235 173.591 530.996 173.352C532.09 173.009 531.357 173.039 532.59 173.261C534.268 175.602 536.116 180.341 537.118 183.152C545.028 201.443 554.25 216.183 566.753 231.59C564.454 233.016 563.687 233.558 560.859 233.816C573.057 251.393 588.865 266.165 607.227 277.144C608.521 276.096 607.783 276.435 609.596 276.284C614.283 279.101 618.955 281.943 623.611 284.811C635.95 290.364 645.458 293.73 659.181 294.841C652.519 298.396 643.686 302.086 636.658 305.122C621.251 311.746 605.731 318.106 590.105 324.198C588.357 322.106 576.593 315.778 573.126 313.516C533.788 287.854 506.934 243.141 497.557 197.541C495.158 191.656 493.421 168.651 493.106 161.64Z"
     id="path22" />
  <path
     fill="#0169D8"
     d="M493.106 161.64C499.486 163.378 505.775 165.432 511.952 167.794C516.61 169.577 522.58 172.34 527.338 174.154C528.044 174.423 530.235 173.591 530.996 173.352C532.09 173.009 531.357 173.039 532.59 173.261C534.268 175.602 536.116 180.341 537.118 183.152C545.028 201.443 554.25 216.183 566.753 231.59C564.454 233.016 563.687 233.558 560.859 233.816C573.057 251.393 588.865 266.165 607.227 277.144C608.521 276.096 607.783 276.435 609.596 276.284C614.283 279.101 618.955 281.943 623.611 284.811C635.95 290.364 645.458 293.73 659.181 294.841C652.519 298.396 643.686 302.086 636.658 305.122C634.091 303.13 623.032 300.39 619.047 298.548C586.495 283.498 560.649 257.683 543.972 226.084C541.318 221.055 538.808 216.829 536.667 211.589C536.143 213.905 539.916 218.561 539.661 219.877C537.5 219.969 536.896 218.34 536.525 218.421C525.434 220.842 515.557 207.616 504.396 210.351C503.932 210.465 504.41 212.061 502.489 212.787C500.16 209.012 500.084 200.625 497.557 197.541C495.158 191.656 493.421 168.651 493.106 161.64Z"
     id="path23" />
  <path
     fill="#002554"
     d="M560.859 233.816C551.971 221.565 545.12 207.063 539.812 192.933C538.784 190.197 536.743 185.889 537.118 183.152C545.028 201.443 554.25 216.183 566.753 231.59C564.454 233.016 563.687 233.558 560.859 233.816Z"
     id="path24" />
  <path
     fill="#010818"
     d="M607.227 277.144C608.521 276.096 607.783 276.435 609.596 276.284C614.283 279.101 618.955 281.943 623.611 284.811C619.871 285.219 610.636 279.166 607.227 277.144Z"
     id="path25" />
  <defs
     id="defs26">
    <linearGradient
       id="gradient_4"
       gradientUnits="userSpaceOnUse"
       x1="463.95605"
       y1="117.97089"
       x2="553.047"
       y2="42.681583">
      <stop
         offset="0"
         stop-color="#0055C3"
         id="stop25" />
      <stop
         offset="1"
         stop-color="#34A0FC"
         id="stop26" />
    </linearGradient>
  </defs>
  <path
     fill="url(#gradient_4)"
     d="M429.699 67.0107C436.455 60.2577 448.823 50.4503 457.516 46.2713C459.999 45.0774 466.204 43.631 469.106 43.0364C471.464 43.7452 489.828 43.0118 494.298 42.9647C524.359 42.6482 561.781 56.5369 584.001 77.2529C578.282 90.5336 571.24 102.553 564.375 115.205C538.379 92.624 504.527 81.2069 470.168 83.4319C460.178 84.0593 452.119 85.8306 442.475 88.5102C441.544 88.4662 440.233 88.5201 439.269 88.5328C437.27 79.9782 433.247 74.1129 429.699 67.0107Z"
     id="path26" />
  <path
     fill="#004DAA"
     d="M392.646 118.981C402.021 98.0893 413.238 82.876 429.699 67.0107C433.247 74.1129 437.27 79.9782 439.269 88.5328C440.233 88.5201 441.544 88.4662 442.475 88.5102C433.27 91.957 422.85 95.9772 414.761 101.546C407.693 106.413 401.297 112.45 395.068 118.291C394.471 118.851 393.436 118.962 392.646 118.981Z"
     id="path27" />
  <path
     fill="#017BE4"
     d="M417.276 168.982C413.61 173.948 412.398 177.276 409.804 182.661C399.838 203.349 397.454 226.137 398.797 248.834C399.169 255.11 401.688 269.515 400.456 275.008C397.619 270.086 395.035 265.022 392.714 259.836C393.271 258.647 391.635 249.811 391.416 247.384C388.739 217.644 391.545 188.08 417.276 168.982Z"
     id="path28" />
  <defs
     id="defs29">
    <linearGradient
       id="gradient_5"
       gradientUnits="userSpaceOnUse"
       x1="396.70288"
       y1="200.41032"
       x2="526.55792"
       y2="87.99601">
      <stop
         offset="0"
         stop-color="#D4D8DF"
         id="stop28" />
      <stop
         offset="1"
         stop-color="white"
         id="stop29" />
    </linearGradient>
  </defs>
  <path
     fill="url(#gradient_5)"
     d="M468.825 92.3665C500.035 89.4333 535.257 103.676 559.184 123.396C547.806 139.569 539.309 149.156 527.247 163.884C500.913 151.4 478.217 145.756 449.133 148.562C441.224 149.394 433.442 151.16 425.95 153.825C407.554 160.484 392.261 172.593 383.894 190.518C384.168 170.137 385.03 154.219 393.612 135.377C406.988 106.01 438.926 94.2258 468.825 92.3665Z"
     id="path29" />
  <path
     id="path30"
     d="M 302.06055 67.611328 C 294.15742 67.428516 286.48069 67.401569 282.67969 67.917969 C 264.79569 70.154369 248.69617 78 237.45312 92.375 C 229.93712 101.9227 225.20248 113.36073 223.77148 125.42773 C 222.41148 136.13973 223.13906 161.23016 223.16406 173.28516 L 223.49023 268.10742 L 223.56055 431.86719 C 223.57155 461.59819 222.69786 497.01473 224.17188 526.30273 C 253.76387 458.63373 355.97839 404.18402 422.40039 378.16602 C 433.21039 373.93202 444.13325 369.99166 455.15625 366.34766 C 461.48425 364.23866 470.47645 361.56466 476.43945 359.22266 C 466.72845 354.59966 455.48306 349.51905 446.78906 343.24805 C 439.51906 345.06605 432.28394 347.01847 425.08594 349.10547 C 424.96594 345.02047 424.96137 338.62884 423.85938 334.83984 L 423.12695 334.58008 C 421.97395 337.68508 422.1802 346.19911 422.1582 349.91211 C 409.8652 353.35411 397.63652 357.02397 385.47852 360.91797 L 385.43945 325.81055 C 395.95045 323.86255 406.42442 321.72539 416.85742 319.40039 L 413.14258 315.25391 L 385.4375 320.32617 C 385.2825 310.38517 383.81828 287.86442 385.86328 279.35742 C 385.94228 279.03142 385.96077 278.82867 386.00977 278.51367 L 386.09375 278.00781 C 384.71475 273.42081 381.97177 268.9273 380.13477 264.2793 C 380.24177 267.5173 380.44152 271.11917 380.35352 274.32617 C 367.14152 274.40917 354.37536 275.37644 341.31836 275.64844 C 341.23436 260.19344 341.00464 244.35559 341.18164 228.93359 C 350.48164 229.54459 359.76992 230.30775 369.04492 231.21875 L 367.92773 225.39648 C 360.29973 224.73848 348.18761 223.92756 341.09961 222.47656 C 340.97361 207.71156 340.50134 191.19145 340.90234 176.56445 C 348.66234 178.18845 356.40868 179.87781 364.14062 181.63281 C 364.70063 174.18681 365.3142 167.86328 366.2832 160.48828 C 346.4152 155.79028 326.39953 150.13534 306.64453 144.90234 L 235.9707 126.72266 C 238.9547 111.57066 245.95139 98.856909 259.02539 90.099609 C 265.70539 85.631809 273.29414 82.703637 281.24414 81.523438 C 292.08814 79.825038 308.40981 81.044409 319.75781 81.037109 C 344.92681 81.021009 371.14561 82.617059 396.22461 82.630859 C 399.38661 78.378959 402.69639 74.240856 406.15039 70.222656 L 322.79688 68.232422 C 318.09238 68.132772 309.96367 67.794141 302.06055 67.611328 z M 234.41211 154.16797 C 250.17511 156.87597 268.6953 161.15391 284.4043 164.62891 C 284.3413 182.17991 284.65995 199.72373 284.50195 217.30273 C 268.99495 216.80473 250.48572 214.02603 234.38672 213.08203 L 234.41211 154.16797 z M 290.47266 165.89648 C 305.36366 169.09448 320.27503 172.19427 335.20703 175.19727 C 335.26303 190.54127 335.62983 207.07808 335.17383 222.33008 C 321.17083 220.44308 305.06041 219.31575 290.81641 217.96875 C 290.10941 201.96775 290.50866 182.05748 290.47266 165.89648 z M 234.3457 220.04102 C 250.8947 220.89402 268.11567 222.62028 284.76367 223.73828 L 284.98633 260.70508 C 285.00233 263.64208 285.25591 275.55355 284.75391 277.93555 L 283.89648 278.46484 C 267.78248 279.41284 250.58106 279.93584 234.41406 280.46484 L 234.3457 220.04102 z M 290.80273 224.49219 C 304.80073 225.23219 321.18466 226.94853 335.22266 228.26953 C 335.31266 233.46653 336.16845 274.55789 334.93945 276.21289 C 320.28345 276.70989 305.80452 277.54267 291.10352 277.88867 C 290.64752 260.41667 290.82173 242.00319 290.80273 224.49219 z M 334.09961 281.99219 C 334.39061 281.99494 334.67634 282.06864 335.27734 282.24414 C 336.03034 283.89314 335.68855 324.79903 335.68555 329.58203 C 323.44655 332.54803 307.27219 334.96447 294.49219 337.35547 C 292.64019 337.55047 292.78744 337.8508 291.52344 337.0918 C 291.01644 332.4618 291.23847 323.49608 291.23047 318.45508 L 291.17383 284.50391 C 303.30583 284.46091 320.43672 282.90097 332.88672 282.16797 C 333.51172 282.05947 333.80861 281.98944 334.09961 281.99219 z M 284.93555 284.86133 L 285.08789 338.97852 C 270.40789 341.97652 254.73641 344.62539 239.94141 347.15039 L 234.46289 348.19531 L 234.39648 287.37891 L 279.86328 285.14258 L 284.93555 284.86133 z M 334.80273 335.89453 L 335.62891 336.22461 C 336.41891 348.75861 336.06361 365.41059 336.09961 378.18359 C 321.52161 383.71159 306.9992 389.38417 292.5332 395.20117 L 291.83203 395.22266 C 291.22303 394.24266 291.38209 349.41634 291.37109 344.40234 C 305.82809 341.46534 320.30573 338.62853 334.80273 335.89453 z " />
  <path
     fill="#F9F9F9"
     d="M284.498 345.866L285.097 346.223C285.484 347.925 285.334 358.484 285.337 361.263L285.337 398.101C268.586 404.434 252.019 411.909 235.335 418.569L235.038 418.64L234.539 418.201C233.89 398.447 234.466 375.363 234.437 355.383C249.953 351.909 268.655 348.866 284.498 345.866Z"
     id="path31" />
  <path
     fill="#F9F9F9"
     d="M374.447 279.66C375.962 279.52 378.681 279.507 380.282 279.454C380.453 293.348 380.549 307.243 380.569 321.139C370.094 323.507 358.624 325.442 347.995 327.408L341.523 328.471C341.343 312.859 341.304 297.246 341.406 281.633C352.424 281.046 363.437 280.388 374.447 279.66Z"
     id="path39" />
  <path
     fill="#F9F9F9"
     d="M380.06 326.997L380.292 327.198C381.079 329.963 381.005 357.895 381.012 362.335C368.113 366.806 355.247 371.369 342.414 376.024L342.065 375.96C341.883 375.76 341.7 375.559 341.518 375.359C341.413 364.161 341.471 345.246 341.49 334.719C354.307 331.953 367.165 329.379 380.06 326.997Z"
     id="path40" />
  <defs
     id="defs41">
    <linearGradient
       id="gradient_6"
       gradientUnits="userSpaceOnUse"
       x1="554.22998"
       y1="535.64417"
       x2="495.89304"
       y2="307.50815">
      <stop
         offset="0"
         stop-color="#004199"
         id="stop40" />
      <stop
         offset="1"
         stop-color="#0076EB"
         id="stop41" />
    </linearGradient>
  </defs>
  <path
     fill="url(#gradient_6)"
     d="M800.258 228.682L800.374 228.761L800.376 229.422C793.498 238.764 779.438 252.689 770.846 260.235C660.694 356.973 508.02 384.953 394.762 477.281C358.682 506.693 323.583 549.297 319.115 597.329C292.077 597.437 277.429 599.174 254.315 581.821C246.881 575.532 243.354 571.664 238.142 563.597C249.153 530.219 269.692 505.345 295.584 482.172C382.324 404.537 492.581 377.117 597.893 335.721C655.371 313.128 716.465 284.384 768.435 251.144C778.167 244.919 791.298 235.975 800.258 228.682Z"
     id="path41" />
  <path
     fill="#017BE4"
     d="M649.175 35.5008C688.333 55.7188 717.925 90.5827 731.516 132.509C734.716 142.462 737.564 157.614 738.026 168.07C729.379 137.807 724.328 127.413 705.488 101.713C709.205 117.996 706.717 137.102 703.535 153.274C699.645 168.296 695.633 180.628 688.466 194.295C671.287 227.054 645.526 254.309 613.86 273.367C612.469 274.205 610.824 275.221 609.596 276.284C607.783 276.435 608.521 276.096 607.227 277.144C588.865 266.165 573.057 251.393 560.859 233.816C563.687 233.558 564.454 233.016 566.753 231.59C568.036 231.211 568.467 231.025 569.599 230.264C607.42 204.871 644.049 158.542 653.688 113.78C657.596 95.3493 657.134 83.6135 653.031 65.3182C650.962 59.1623 648.233 49.7245 643.066 45.9259C642.838 43.3299 642.289 42.8372 641.556 40.385L642.13 39.5764C644.624 39.0326 646.429 40.2596 649.633 40.0723L648.802 38.1128L649.136 37.7021L649.175 35.5008Z"
     id="path42" />
  <defs
     id="defs43">
    <linearGradient
       id="gradient_7"
       gradientUnits="userSpaceOnUse"
       x1="621.30084"
       y1="268.24664"
       x2="631.51056"
       y2="187.88428">
      <stop
         offset="0"
         stop-color="#01367B"
         id="stop42" />
      <stop
         offset="1"
         stop-color="#005EC9"
         id="stop43" />
    </linearGradient>
  </defs>
  <path
     fill="url(#gradient_7)"
     d="M653.688 113.78C658.187 117.558 661.063 112.1 663.24 119.25C660.675 128.245 658.425 135.946 654.684 144.565C652.691 149.158 649.465 154.524 647.765 158.899C647.475 165.927 629.632 185.725 629.636 190.387C631.866 193.102 656.612 194.561 661.051 194.164C667.92 193.549 673.38 192.914 680.041 194.333C684.059 191.216 692.016 169.985 694.407 169.388C696.269 165.428 700.303 152.575 702.255 150.928L703.004 151.344L703.535 153.274C699.645 168.296 695.633 180.628 688.466 194.295C671.287 227.054 645.526 254.309 613.86 273.367C612.469 274.205 610.824 275.221 609.596 276.284C607.783 276.435 608.521 276.096 607.227 277.144C588.865 266.165 573.057 251.393 560.859 233.816C563.687 233.558 564.454 233.016 566.753 231.59C568.036 231.211 568.467 231.025 569.599 230.264C607.42 204.871 644.049 158.542 653.688 113.78Z"
     id="path43" />
  <defs
     id="defs45">
    <linearGradient
       id="gradient_8"
       gradientUnits="userSpaceOnUse"
       x1="584.31854"
       y1="259.1926"
       x2="687.92273"
       y2="138.29762">
      <stop
         offset="0"
         stop-color="#001F4A"
         id="stop44" />
      <stop
         offset="1"
         stop-color="#003A86"
         id="stop45" />
    </linearGradient>
  </defs>
  <path
     fill="url(#gradient_8)"
     d="M653.688 113.78C658.187 117.558 661.063 112.1 663.24 119.25C660.675 128.245 658.425 135.946 654.684 144.565C652.691 149.158 649.465 154.524 647.765 158.899C643.003 166.338 639.352 173.199 634.131 180.59C617.492 204.14 598.104 222.528 574.825 239.203C581.471 248.791 594.566 260.978 604.2 267.599C637.484 249.324 666.814 219.985 685.792 187.044C687.675 183.775 693.351 172.815 694.407 169.388C696.269 165.428 700.303 152.575 702.255 150.928L703.004 151.344L703.535 153.274C699.645 168.296 695.633 180.628 688.466 194.295C671.287 227.054 645.526 254.309 613.86 273.367C612.469 274.205 610.824 275.221 609.596 276.284C607.783 276.435 608.521 276.096 607.227 277.144C588.865 266.165 573.057 251.393 560.859 233.816C563.687 233.558 564.454 233.016 566.753 231.59C568.036 231.211 568.467 231.025 569.599 230.264C607.42 204.871 644.049 158.542 653.688 113.78Z"
     id="path45" />
  <path
     fill="#004DAA"
     d="M649.136 37.7021C653.882 44.6127 656.606 49.5812 659.744 57.3644C667.951 76.5357 668.197 99.1921 663.24 119.25C661.063 112.1 658.187 117.558 653.688 113.78C657.596 95.3493 657.134 83.6135 653.031 65.3182C650.962 59.1623 648.233 49.7245 643.066 45.9259C642.838 43.3299 642.289 42.8372 641.556 40.385L642.13 39.5764C644.624 39.0326 646.429 40.2596 649.633 40.0723L648.802 38.1128L649.136 37.7021Z"
     id="path46" />
  <path
     fill="#0056C2"
     d="M649.136 37.7021C653.882 44.6127 656.606 49.5812 659.744 57.3644C657.756 55.1076 652.434 50.996 649.375 51.7622C648.764 54.5534 654.444 61.0856 653.031 65.3182C650.962 59.1623 648.233 49.7245 643.066 45.9259C642.838 43.3299 642.289 42.8372 641.556 40.385L642.13 39.5764C644.624 39.0326 646.429 40.2596 649.633 40.0723L648.802 38.1128L649.136 37.7021Z"
     id="path47" />
  <path
     id="path48"
     d="M 64.453125 622.10352 C 62.784169 622.10665 61.099947 622.19231 59.404297 622.36719 C 32.080397 625.18519 12.260344 649.69381 15.214844 677.00781 C 18.169344 704.32081 42.770353 724.02169 70.064453 720.92969 C 97.165453 717.85869 116.69377 693.46375 113.75977 666.34375 C 111.01008 640.91781 89.487458 622.0565 64.453125 622.10352 z M 65.730469 640.45703 C 81.539499 641.06585 94.633078 653.55891 95.654297 669.69141 C 96.743497 686.89841 83.684069 701.73303 66.480469 702.83203 C 49.263669 703.93103 34.418225 690.85867 33.328125 673.63867 C 32.238025 656.41867 45.317256 641.57709 62.535156 640.49609 C 63.610456 640.42859 64.676533 640.41644 65.730469 640.45703 z " />
  <path
     id="path50"
     d="M 159.91992 654.95117 C 158.91665 654.97515 157.89166 655.03908 156.84375 655.14648 C 148.94875 656.94948 146.10441 658.81275 140.94141 665.09375 L 141.10742 656.28125 L 125.42383 656.27539 L 125.41211 745.61719 L 141.99414 745.5293 L 141.99414 726.74023 C 142.00714 721.59723 142.2098 715.06125 141.9668 710.03125 C 147.4738 715.76925 152.49622 719.14136 160.82422 719.31836 C 168.68722 719.45636 176.28283 716.4527 181.92383 710.9707 C 200.56742 692.59836 191.02122 654.20786 159.91992 654.95117 z M 156.99805 669.76953 C 165.73825 669.35774 173.53195 675.66086 174.79102 684.51367 C 176.13402 693.95767 169.52817 702.68794 160.07617 703.96094 C 150.72317 705.22094 142.10634 698.69752 140.77734 689.35352 C 139.44834 680.00852 145.90528 671.34041 155.23828 669.94141 C 155.82772 669.85303 156.41537 669.79698 156.99805 669.76953 z " />
  <path
     id="path52"
     d="M 462.11914 653.85742 C 459.90854 653.8117 457.66039 653.98867 455.40039 654.4043 C 437.45139 657.7063 425.541 674.89037 428.75 692.85938 C 431.959 710.82838 449.0805 722.82794 467.0625 719.71094 C 485.1755 716.56994 497.27887 699.29531 494.04688 681.19531 C 491.218 665.35869 477.59337 654.17751 462.11914 653.85742 z M 461.00195 669.53906 C 470.61895 669.28506 478.62186 676.87319 478.88086 686.49219 C 479.13986 696.11019 471.55545 704.11881 461.93945 704.38281 C 452.31545 704.64681 444.30197 697.05569 444.04297 687.42969 C 443.78397 677.80469 451.37795 669.79306 461.00195 669.53906 z "
     style="fill:#0169d8;fill-opacity:1" />
  <path
     id="path54"
     d="M 867.29688 655.77344 C 866.20909 655.82278 865.1143 655.92678 864.01367 656.08984 C 846.60067 658.66884 834.5258 674.81009 836.9668 692.24609 C 839.4078 709.68209 855.45034 721.88798 872.90234 719.58398 C 890.55034 717.25498 902.92017 700.98847 900.45117 683.35547 C 898.13742 666.82547 883.61358 655.03331 867.29688 655.77344 z M 869.25195 671.14258 C 876.95497 671.33937 883.71942 676.91252 885.13867 684.79102 C 886.76167 693.79502 880.79002 702.41364 871.79102 704.05664 C 862.76302 705.70464 854.11238 699.71073 852.48438 690.67773 C 850.85637 681.64473 856.87125 673.00448 865.90625 671.39648 C 867.03212 671.19623 868.15152 671.11446 869.25195 671.14258 z " />
  <path
     fill="#0169D8"
     d="M412.776 625.596C419.357 625.734 426.123 625.684 432.72 625.712C430.191 631.576 427.734 637.47 425.347 643.394L394.37 717.825L377.886 717.793C371.08 700.479 364.16 683.21 357.126 665.986C351.844 653.226 345.347 638.561 340.645 625.747C347.163 625.551 354.313 625.674 360.882 625.651C368.976 648.508 378.799 671.527 386.981 694.593C388.776 687.923 393.577 676.211 396.136 669.475L412.776 625.596Z"
     id="path56" />
  <path
     fill="#002554"
     d="M740.428 625.381C752.047 625.461 759.198 627.749 768.059 635.238C764.813 639.374 760.16 644.432 756.638 648.491C752.918 644.721 749.7 641.989 744.155 641.16C737.147 640.112 727.366 642.608 726.876 651.13C726.39 659.214 736.646 662.571 742.89 664.262C758.893 668.696 770.54 676.177 768.605 694.447C766.629 713.104 750.367 720.703 733.002 719.564C721.585 719.033 713.646 715.1 705.883 707.044L717.996 693.84C718.753 694.721 719.53 695.585 720.327 696.43C726.999 703.434 739.705 707.652 748.36 699.835C753.006 694.487 752.508 687.489 746.383 684.031C736.728 678.58 725.177 678.038 716.71 670.53C712.181 666.499 709.468 660.812 709.186 654.755C708.106 635.39 722.787 626.193 740.428 625.381Z"
     id="path57" />
  <path
     id="path58"
     d="M 232.20508 655.01562 C 230.91008 655.04763 229.61527 655.10545 228.32227 655.18945 C 198.39327 659.72945 189.89773 694.4017 212.55273 713.0957 C 225.80173 724.0287 247.73706 720.20202 258.91406 706.66602 C 256.31206 704.80202 253.22786 702.70823 250.75586 700.74023 L 247.11328 697.83398 C 236.70828 710.91098 220.61836 708.87091 215.94336 692.12891 C 230.52536 692.11791 246.90489 691.72845 261.33789 692.18945 C 261.33489 684.54745 261.39981 677.61148 258.00781 670.52148 C 253.04481 660.14548 243.58108 654.78363 232.20508 655.01562 z M 232.53125 667.08203 C 240.27023 667.58364 243.76639 671.7173 245.44727 680.4043 L 232.46289 680.4707 L 215.88281 680.47266 C 218.02181 672.48366 220.66627 669.13389 228.94727 667.08789 C 230.23302 667.01402 231.42568 667.01037 232.53125 667.08203 z " />
  <path
     id="path60"
     d="M 598.91406 655.12305 C 597.47952 655.07779 595.98153 655.09689 594.41797 655.18164 C 574.47897 658.50064 562.85369 673.23459 566.55469 693.55859 C 568.05469 701.85159 572.82502 709.19359 579.79102 713.93359 C 594.88502 724.01559 613.24431 719.82422 625.07031 706.82422 C 622.53731 704.96522 619.66139 702.95213 617.27539 700.95312 L 613.26953 697.89648 C 609.71453 702.38648 606.26967 705.43848 600.26367 706.14648 C 595.90067 706.68948 591.50584 705.43106 588.08984 702.66406 C 584.35684 699.60406 583.13431 696.55147 581.82031 692.10547 C 597.00331 691.96947 612.18709 691.97414 627.37109 692.11914 C 627.65984 670.83602 620.43224 655.80186 598.91406 655.12305 z M 594.97656 667.08984 C 600.23056 666.94084 605.44364 667.54384 608.93164 672.21484 C 610.23164 673.95584 611.85841 677.86233 611.44141 680.11133 C 609.66441 681.00333 601.87044 680.56948 599.39844 680.52148 L 581.99609 680.44727 C 584.22509 672.55927 586.73556 669.32684 594.97656 667.08984 z "
     style="fill:#0169d8;fill-opacity:1" />
  <path
     fill="#0169D8"
     d="M678.12 656.682C683.834 656.768 689.549 656.783 695.264 656.728C688.17 674.319 681.208 691.964 674.38 709.66C665.041 733.199 662.428 752.415 631.25 743.914L634.326 729.383C648.333 733.374 650.458 728.883 655.345 717.237L638.486 678.459C636.051 672.926 630.879 662.125 629.147 656.734L647.056 656.689C652.628 670.537 658.116 684.418 663.519 698.333L678.12 656.682Z"
     id="path62" />
  <path
     fill="#002554"
     d="M303.833 655.127C305.195 655.031 306.56 654.988 307.926 655C329.934 654.974 330.354 674.447 329.753 690.956C329.438 699.606 329.711 709.083 329.689 717.787L313.44 717.802C313.487 708.4 315.246 681.434 311.114 674.429C309.742 672.103 307.682 670.201 304.986 669.606C301.341 668.803 297.093 670.638 294.11 672.603C287.204 679.667 289.662 707.056 289.611 717.802L273.503 717.901L273.473 656.432L289.315 656.435L289.321 665.522C293.431 658.871 296.278 657 303.833 655.127Z"
     id="path63" />
  <path
     fill="#002554"
     d="M910.944 657.586L926.837 657.614C926.77 669.809 926.34 682.321 927.095 694.455C927.413 699.559 931.615 704.505 937.002 704.486C951.541 704.433 949.941 688.43 949.874 678.366C949.828 671.467 949.857 664.563 949.876 657.685L965.586 657.641L965.612 680.694L965.61 717.787L950.6 717.813L950.48 709.37C945.559 715.886 940.658 719.375 932.36 719.279C911.035 719.032 910.3 700.978 910.827 684.325C911.092 675.927 910.899 666.178 910.944 657.586Z"
     id="path64" />
  <path
     fill="#002554"
     d="M982.705 639.597L998.532 639.59L998.544 657.598L1013.93 657.612L1013.84 671.476L998.579 671.485C998.634 679.809 997.909 688.728 998.631 696.938C999.434 706.074 1007.49 705.133 1013.78 703.651L1013.99 714.443C1013.98 716.223 1014.22 715.694 1013.37 717.061C1010.05 718.968 1007.43 718.963 1003.8 719.143C990.265 719.813 982.602 712.937 982.63 699.156C982.649 690.213 982.653 680.61 982.649 671.482L972.318 671.455L972.345 657.598L982.644 657.633L982.705 639.597Z"
     id="path65" />
  <path
     fill="#002554"
     d="M805.204 656.678C805.76 656.625 806.316 656.582 806.873 656.546C818.355 655.83 824.238 658.235 832.731 665.686C829.164 669.017 825.191 673.211 821.701 676.717C818.483 673.48 815.359 671.208 810.592 670.904C806.659 670.689 802.802 672.044 799.867 674.671C792.979 680.731 792.174 693.713 798.748 699.746C806.191 706.574 815.142 705.375 821.627 698.34L826.084 702.883L833.039 709.222C821.951 721.081 803.91 722.513 790.723 713.324C784.021 708.599 779.507 701.371 778.201 693.275C775.125 674.472 786.555 659.55 805.204 656.678Z"
     id="path66" />
  <path
     fill="#0169D8"
     d="M507.521 623.244L523.914 623.275L523.929 717.787L507.524 717.799C507.14 686.595 507.503 654.533 507.521 623.244Z"
     id="path67" />
  <path
     fill="#0169D8"
     d="M538.499 623.268L554.844 623.321L554.845 717.776L538.515 717.817L538.499 623.268Z"
     id="path68" />
  <defs
     id="defs69">
    <linearGradient
       id="gradient_9"
       gradientUnits="userSpaceOnUse"
       x1="687.92914"
       y1="228.99452"
       x2="727.83429"
       y2="242.13202">
      <stop
         offset="0"
         stop-color="#0D1D51"
         id="stop68" />
      <stop
         offset="1"
         stop-color="#003D8B"
         id="stop69" />
    </linearGradient>
  </defs>
  <path
     fill="url(#gradient_9)"
     d="M736.743 177.853L737.79 177.709C738.082 178.544 738.349 179.329 738.679 180.153C740.499 202.651 735.428 227.847 726.605 248.529C724.239 254.073 721.531 261.431 717.323 265.788C712.294 270.996 672.03 289.534 663.455 292.983C666.562 290.906 669.614 288.746 672.607 286.506C709.138 258.806 730.505 223.324 736.743 177.853Z"
     id="path69" />
  <path
     fill="#0169D8"
     d="M482.52 31.6574C522.015 14.1681 556.045 7.66196 599.162 16.9637C595.947 19.0882 591.728 16.2419 588.887 19.0443C589.769 22.1173 594.084 23.3588 594.968 25.6065C557.535 17.9435 518.724 20.5929 482.679 33.2716L482.52 31.6574Z"
     id="path70" />
  <path
     fill="#0169D8"
     d="M599.162 16.9637C607.205 17.6081 625.282 24.581 632.919 27.7541C638.344 30.04 644.118 32.4654 649.175 35.5008L649.136 37.7021L648.802 38.1128L649.633 40.0723C646.429 40.2596 644.624 39.0326 642.13 39.5764L641.556 40.385C642.289 42.8372 642.838 43.3299 643.066 45.9259C628.772 37.3273 620.809 33.8516 604.972 28.3342C603.123 28.1815 596.746 26.2916 594.968 25.6065C594.084 23.3588 589.769 22.1173 588.887 19.0443C591.728 16.2419 595.947 19.0882 599.162 16.9637Z"
     id="path71" />
  <path
     fill="#37A8FA"
     d="M599.162 16.9637C607.205 17.6081 625.282 24.581 632.919 27.7541C627.755 28.3421 607.147 26.7738 604.972 28.3342C603.123 28.1815 596.746 26.2916 594.968 25.6065C594.084 23.3588 589.769 22.1173 588.887 19.0443C591.728 16.2419 595.947 19.0882 599.162 16.9637Z"
     id="path72" />
  <path
     fill="#002554"
     d="M517.435 766.673C524.333 764.786 531.453 768.853 533.332 775.753C535.212 782.654 531.138 789.771 524.236 791.643C517.345 793.512 510.243 789.445 508.367 782.555C506.49 775.665 510.549 768.557 517.435 766.673Z"
     id="path73" />
  <path
     fill="#F9F9F9"
     d="M520.047 770.654C530.953 772.096 531.81 784.353 521.367 787.531C511.27 786.463 509.489 774.226 520.047 770.654Z"
     id="path74" />
  <path
     fill="#002554"
     d="M782.545 766.72C789.414 764.71 796.608 768.67 798.584 775.549C800.561 782.429 796.566 789.604 789.678 791.547C782.837 793.477 775.723 789.515 773.761 782.683C771.798 775.851 775.724 768.717 782.545 766.72Z"
     id="path75" />
  <path
     fill="#F9F9F9"
     d="M784.995 770.643C795.554 771.332 797.552 783.256 787.407 787.468C776.421 786.588 774.891 775.058 784.995 770.643Z"
     id="path76" />
  <path
     fill="#0169D8"
     d="M52.6802 774.16C63.0693 773.38 78.6233 774.237 89.4995 774.008C105.231 773.678 121.735 774.22 137.542 774.05C139.536 774.028 139.772 774.183 140.844 775.347C141.216 777.306 141.019 777.598 140.495 779.598L83.0876 779.67C73.7766 779.697 63.8254 779.862 54.5014 779.571C52.9906 779.524 52.762 779.049 52.0684 778.142C51.8419 776.182 51.9589 776.064 52.6802 774.16Z"
     id="path77" />
  <path
     fill="#0169D8"
     d="M911.07 774.15C925.22 773.356 941.968 774.441 956.398 773.989C965.2 773.714 975.625 774.052 984.525 774.138C985.993 774.153 985.896 774.518 986.667 775.563C986.944 777.325 986.663 777.832 986.177 779.612C962.251 780.319 937.775 779.288 913.804 779.649C912.087 779.675 911.651 779.483 910.594 778.301C910.282 776.363 910.48 776.101 911.07 774.15Z"
     id="path78" />
  <path
     fill="#002554"
     d="M690.788 766.746L697.776 766.776C697.784 771.387 698.499 788.075 697.149 791.262C695.165 791.603 696.072 791.732 694.313 791.007C692.233 788.191 693.153 780.084 693.218 775.961L693.007 774.564C691.812 775.421 687.536 788.271 685.895 791.423C681.216 792.224 677.581 776.667 675.812 772.607C676.021 777.294 677.813 788.362 674.454 791.351C672.591 791.538 673.394 791.732 671.889 791.083C670.938 786.607 671.434 772.148 671.496 766.822L678.339 766.879C680.323 772.371 682.634 778.066 684.755 783.532C686.575 777.982 688.77 772.252 690.788 766.746Z"
     id="path79" />
  <path
     fill="#002554"
     d="M225.601 784.045C225.626 779.62 224.61 770.688 226.618 767.515C228.377 766.526 227.63 766.768 229.813 766.908C231.225 768.924 230.706 788.063 230.425 791.494L224.624 791.455C220.812 785.537 217.11 779.55 213.517 773.497C213.585 777.821 214.452 787.439 212.547 790.725C210.932 791.711 211.593 791.447 209.475 791.364C207.835 789.191 208.682 770.798 208.747 766.825L214.537 766.831C218.313 772.512 222.001 778.25 225.601 784.045Z"
     id="path80" />
  <path
     fill="#002554"
     d="M743.288 766.831C747.455 766.819 758.045 765.985 760.218 770.414C762.788 775.652 760.305 778.563 755.851 781.039C757.955 784.47 760.006 787.933 762.005 791.425L756.311 791.45C755.507 790.007 754.721 788.555 753.954 787.092C752.947 785.172 751.419 781.604 749.324 780.951C746.851 783.315 748.898 788.927 747.666 791.202C745.805 791.442 745.708 791.453 743.889 791.084C742.401 789.335 743.235 770.333 743.288 766.831Z"
     id="path81" />
  <path
     fill="#F9F9F9"
     d="M748.126 771.114C751.221 771.138 753.566 770.517 755.7 772.981C756.082 774.721 755.92 774.868 755.233 776.607C753.033 777.165 750.716 777.755 748.732 776.569C747.72 774.979 748.061 773.11 748.126 771.114Z"
     id="path82" />
  <path
     fill="#002554"
     d="M181.718 766.726C182.56 766.701 185.353 766.654 185.683 767.078C187.751 769.735 195.519 788.643 195.98 790.903C193.081 793.733 191.201 791.354 189.855 788.619L188.64 786.183L187.39 785.832L178.824 785.96C178.195 787.808 177.666 790.141 176.326 791.399C174.479 791.436 174.079 791.487 172.307 791.092C171.745 789.052 180.35 770.113 181.718 766.726Z"
     id="path83" />
  <path
     fill="#F9F9F9"
     d="M183.617 773.528C184.549 774.54 186.524 779.645 186.469 781.351L185.39 781.752C183.491 781.71 182.878 782.009 181.442 781.093C180.954 778.679 182.546 776.083 183.617 773.528Z"
     id="path84" />
  <path
     fill="#002554"
     d="M253.419 766.756C256.037 766.68 257.752 766.387 258.574 769.066C259.865 773.272 267.219 787.531 267.481 790.868C266.435 791.79 266.212 791.73 264.875 792.075C259.92 790.542 262.608 786.16 258.363 785.795L250.472 785.939C249.831 787.786 249.408 789.702 248.051 791.001C246.678 791.582 244.6 791.855 243.579 790.636C244.507 786.323 251.247 771.709 253.419 766.756Z"
     id="path85" />
  <path
     fill="#F9F9F9"
     d="M255.201 773.465C256.319 774.657 258.229 779.629 258.173 781.313L257.109 781.756C255.054 781.681 254.33 782.031 252.99 780.931C252.557 778.965 254.328 775.706 255.201 773.465Z"
     id="path86" />
  <path
     fill="#002554"
     d="M712.711 766.858C717.478 766.756 725.86 766.175 728.87 769.915C735.111 777.669 725.915 781.532 719.557 781.644C719.07 781.606 718.562 781.741 718.052 781.826C716.001 785.255 719.636 789.785 715.965 791.818C713.957 791.536 714.717 791.883 713.077 790.619C712.016 788.553 712.664 770.463 712.711 766.858Z"
     id="path87" />
  <path
     fill="#F9F9F9"
     d="M717.582 771.076C720.49 771.028 722.704 770.561 724.736 772.505C725.462 774.225 725.262 774.518 724.884 776.453C722.505 777.282 720.432 777.988 718.21 776.675C717.156 774.974 717.504 773.174 717.582 771.076Z"
     id="path88" />
  <path
     fill="#002554"
     d="M843.395 766.841C847.208 766.765 859.16 765.2 860.091 769.317C859.871 769.761 859.6 770.311 859.277 770.966C856.737 772.12 850.53 770.156 848.339 771.743C846.311 780.856 854.993 774.371 859.052 777.682C859.393 779.16 859.186 779.407 858.654 780.808C857.251 781.326 850.185 781.131 848.234 781.129C848.19 782.662 847.916 785.614 848.745 786.781C852.162 787.769 858.2 785.824 860.358 787.888C860.496 789.637 860.542 788.98 859.777 790.67C857.597 792.005 846.705 791.427 843.401 791.42C843.264 783.227 843.262 775.034 843.395 766.841Z"
     id="path89" />
  <path
     fill="#002554"
     d="M371.66 766.875C374.94 766.785 388.173 765.238 388.233 769.39C385.354 773.441 380.916 769.812 376.807 771.592C376.192 773.38 376.099 773.487 376.286 775.319C378.826 778.714 383.123 775.068 386.744 777.319C387.498 779.015 387.264 778.49 387.048 780.576C385.911 781.317 378.665 781.095 376.491 781.24C376.44 783.226 376.475 784.323 376.664 786.3C378.205 787.955 384.192 786.525 387.616 787.004C388.959 788.01 389.239 788.68 388.726 790.216C386.406 792.23 375.326 791.452 371.551 791.411C371.487 783.232 371.524 775.053 371.66 766.875Z"
     id="path90" />
  <path
     fill="#002554"
     d="M547.004 766.769C548.889 766.687 549.405 766.587 551.207 767.004C554.173 770.799 547.29 789.518 557.983 787.136C565.499 785.462 559.559 772.067 562.831 766.95C564.108 766.542 564.688 766.737 566.005 766.924C567.127 768.286 566.734 768.216 566.786 770.482C566.891 779.507 569.257 792.537 555.624 791.884C544.275 791.34 546.891 774.902 547.004 766.769Z"
     id="path91" />
  <path
     fill="#002554"
     d="M340.283 766.878C343.998 766.819 355.321 765.948 357.472 767.756C357.727 772.171 348.009 782.98 344.825 786.978C348.733 786.986 354.15 785.971 357.288 787.802C357.986 789.443 357.753 788.989 357.477 791.023L356.587 791.434C351.42 791.357 345.252 791.833 340.101 791.336C339.052 791.235 339.035 790.731 338.638 789.955C338.91 785.064 347.729 775.544 351.257 771.258C348.117 771.358 341.578 771.98 339.184 770.359C338.574 768.743 338.729 769.326 339.142 767.399L340.283 766.878Z"
     id="path92" />
  <path
     fill="#002554"
     d="M484.155 766.759C488.13 766.391 494.013 765.747 495.506 770.455C493.647 775.196 490.019 770.876 488.206 770.817C474.907 770.383 478.929 794.61 492.764 785.008C494.3 785.245 495.91 786.927 497.179 788.008C492.756 791.256 488.172 793.123 482.68 791.062C479.439 789.819 476.866 787.273 475.589 784.045C474.279 780.79 474.327 777.146 475.723 773.927C477.546 769.808 480.313 768.316 484.155 766.759Z"
     id="path93" />
  <path
     fill="#002554"
     d="M451.179 766.697C456.349 766.044 457.803 766.599 462.128 768.899C461.267 769.939 460.614 770.619 459.662 771.579C457.449 772.171 455.449 771.455 452.982 771.147C451.313 772.04 451.872 771.641 450.803 773.44C451.603 774.569 454.194 776.068 455.463 776.747C463.865 781.24 466.084 788.251 455.417 791.768C451.116 791.837 448.674 791.791 445.196 789.014L445.213 788.08C446.309 786.774 446.677 786.088 448.185 785.43C450.658 787.288 454.727 788.172 457.11 785.758C457.55 780.278 440.173 778.977 446.172 770.591C447.424 768.841 449.236 767.611 451.179 766.697Z"
     id="path94" />
  <path
     fill="#002554"
     d="M820.312 784.057C821.524 780.878 825.278 768.289 827.364 766.875C828.927 766.766 829.92 766.502 831.249 767.275C831.507 768.971 830.489 770.504 829.73 772.342C827.959 776.795 824.378 788.714 821.567 791.534C818.349 792.189 816.474 788.266 815.565 785.672C813.435 779.597 810.269 772.965 808.642 766.804L813.897 766.877C815.907 772.651 818.046 778.379 820.312 784.057Z"
     id="path95" />
  <path
     fill="#002554"
     d="M304.319 766.803L310.352 766.904C312.334 770.046 314.255 773.227 316.112 776.445C317.812 773.312 319.894 769.966 321.728 766.876L327.526 766.867L321.209 776.732L318.362 780.951C318.371 785.23 319.089 788.413 316.628 791.913L315.338 792.034C312.83 789.514 313.375 784.304 313.417 780.954C310.301 776.291 307.268 771.574 304.319 766.803Z"
     id="path96" />
  <path
     fill="#002554"
     d="M582.832 766.872C587.11 766.863 593.153 766.825 597.583 766.907C598.202 766.919 598.961 768.134 599.382 768.715L599.103 769.954C597.182 771.544 593.876 771.242 591.489 771.187L591.436 788.664C591.441 789.958 591.548 789.949 590.87 791.018C589.336 791.74 589.265 791.83 587.662 791.553C585.831 789.315 586.581 774.945 586.587 771.201C583.313 771.297 580.562 771.921 578.79 768.62L579.191 767.855C580.633 766.81 580.952 766.934 582.832 766.872Z"
     id="path97" />
  <path
     fill="#002554"
     d="M280.532 766.755C282.516 766.666 283.182 766.495 285.003 767.132C285.779 769.27 285.443 783.567 285.42 786.955C288.804 787.052 292.274 786.228 295.055 787.449C296.131 788.967 295.767 789.313 295.775 791.449L280.581 791.401L280.532 766.755Z"
     id="path98" />
  <path
     fill="#002554"
     d="M652.06 766.84C653.911 766.777 654.999 766.55 656.251 767.525C656.68 771.363 656.619 787.527 656.242 791.504C654.545 791.528 653.34 791.708 651.8 791.022C651.206 788.188 651.167 768.454 652.06 766.84Z"
     id="path99" />
  <path
     fill="#002554"
     d="M874.586 785.788C876.121 785.028 877.98 785.662 878.732 787.201C879.484 788.74 878.841 790.597 877.299 791.341C875.768 792.081 873.926 791.444 873.179 789.915C872.432 788.387 873.061 786.542 874.586 785.788Z"
     id="path100" />
  <path
     fill="#002554"
     d="M404.147 785.773C405.131 785.274 406.308 785.343 407.228 785.954C408.147 786.565 408.667 787.624 408.588 788.725C408.509 789.826 407.844 790.8 406.846 791.273C405.332 791.993 403.521 791.361 402.782 789.856C402.043 788.351 402.651 786.531 404.147 785.773Z"
     id="path101" />
  <path
     fill="#002554"
     d="M609.959 785.756C610.971 785.309 612.145 785.444 613.03 786.108C613.915 786.772 614.372 787.861 614.227 788.958C614.082 790.055 613.357 790.988 612.33 791.398C610.779 792.018 609.019 791.281 608.372 789.742C607.725 788.203 608.431 786.429 609.959 785.756Z"
     id="path102" />
  <path
     fill="#004DAA"
     d="M737.514 166.325C738.434 171.371 738.751 174.997 738.679 180.153C738.349 179.329 738.082 178.544 737.79 177.709L736.743 177.853C736.959 174.008 737.216 170.165 737.514 166.325Z"
     id="path103" />
  <path
     fill="#017BE4"
     d="M471.986 37.2298C475.938 34.7295 478.227 33.456 482.52 31.6574L482.679 33.2716C479.041 34.9257 475.755 35.9732 471.986 37.2298Z"
     id="path104" />
</svg>
